<?xml version="1.0"?>
<svg xmlns="http://www.w3.org/2000/svg" height="512px" viewBox="0 0 60 60" width="512px" class=""><g><g id="020---Honey-Syrup" fill="none"><g id="Layer_3" transform="translate(1 1)"><path id="Shape" d="m58 32.69v.85c0 7.02-4.4 13.18-11 16.6-3.7137044 1.8993224-7.8288345 2.880095-12 2.86h-12c-4.1711655.020095-8.2862956-.9606776-12-2.86-6.6-3.42-11-9.58-11-16.6v-.85c.09524512-1.0139588.98436253-1.765263 2-1.69h54c1.0156375-.075263 1.9047549.6760412 2 1.69z" fill="#e91e63" data-original="#E91E63" class="active-path" data-old_color="#e91e63" style="fill:#2F863F"/><path id="Shape" d="m56 31h-3c1.0156375-.075263 1.9047549.6760412 2 1.69v.85c0 7.02-4.4 13.18-11 16.6-3.7137044 1.8993224-7.8288345 2.880095-12 2.86h3c4.1711655.020095 8.2862956-.9606776 12-2.86 6.6-3.42 11-9.58 11-16.6v-.85c-.0952451-1.0139588-.9843625-1.765263-2-1.69z" fill="#ad1457" data-original="#AD1457" class="" data-old_color="#ad1457" style="fill:#177228"/><path id="Shape" d="m47 50.14v4.86c0 1.6568542-1.3431458 3-3 3h-30c-1.6568542 0-3-1.3431458-3-3v-4.86c3.7137044 1.8993224 7.8288345 2.880095 12 2.86h12c4.1711655.020095 8.2862956-.9606776 12-2.86z" fill="#ad1457" data-original="#AD1457" class="" data-old_color="#ad1457" style="fill:#177228"/><path id="Shape" d="m8 4v6c0 1.1045695-.8954305 2-2 2s-2-.8954305-2-2v-6c0-1.1045695.8954305-2 2-2s2 .8954305 2 2z" fill="#a0522d" data-original="#A0522D" class=""/><path id="Shape" d="m12 3v8c0 1.1045695-.8954305 2-2 2s-2-.8954305-2-2v-8c0-1.1045695.8954305-2 2-2s2 .8954305 2 2z" fill="#fec108" data-original="#FEC108" class="" data-old_color="#fec108" style="fill:#177228"/><path id="Shape" d="m24 4v6c0 1.1045695-.8954305 2-2 2s-2-.8954305-2-2v-6c0-1.1045695.8954305-2 2-2s2 .8954305 2 2z" fill="#a0522d" data-original="#A0522D" class=""/><path id="Shape" d="m20 3v8c0 1.1045695-.8954305 2-2 2s-2-.8954305-2-2v-8c0-1.1045695.8954305-2 2-2s2 .8954305 2 2z" fill="#fec108" data-original="#FEC108" class="" data-old_color="#fec108" style="fill:#177228"/><path id="Shape" d="m16 2v10c0 1.1045695-.8954305 2-2 2s-2-.8954305-2-2v-10c0-1.1045695.8954305-2 2-2s2 .8954305 2 2z" fill="#a0522d" data-original="#A0522D" class=""/><path id="Rectangle-path" d="m24 5h26v4h-26z" fill="#783e22" data-original="#783E22"/><path id="Shape" d="m54 4v6c0 1.1045695-.8954305 2-2 2s-2-.8954305-2-2v-6c0-1.1045695.8954305-2 2-2s2 .8954305 2 2z" fill="#a0522d" data-original="#A0522D" class=""/><path id="Shape" d="m22 12v12.5c0 1.3807119-1.1192881 2.5-2.5 2.5s-2.5-1.1192881-2.5-2.5v-3.5c0-1.6568542-1.3431458-3-3-3s-3 1.3431458-3 3v.5c.0018116 1.0125444-.6073144 1.9261924-1.54268357 2.3139215-.93536921.3877292-2.01224546.1729627-2.72731643-.5439215-.08435628-.0831553-.16131346-.1734964-.23-.27-.31834439-.4359694-.49309388-.9602178-.5-1.5v-9.5c1.10320187-.0032948 1.9967052-.8967981 2-2v1c0 1.1045695.8954305 2 2 2s2-.8954305 2-2v1c0 1.1045695.8954305 2 2 2s2-.8954305 2-2v-1c0 1.1045695.8954305 2 2 2s2-.8954305 2-2v-1c.0032948 1.1032019.8967981 1.9967052 2 2z" fill="#ffdc00" data-original="#FFDC00" class="" data-old_color="#ffdc00" style="fill:#3B7E30"/><path id="Shape" d="m20 10v1c-.0039326.71058-.384604 1.3657155-1 1.721v11.779c-.0011004.7838584-.3716862 1.5213242-1 1.99.7546298.5736026 1.769338.6694183 2.6179992.2472094.8486611-.422209 1.3843097-1.2893271 1.3820008-2.2372094v-12.5c-1.1032019-.0032948-1.9967052-.8967981-2-2z" fill="#fec108" data-original="#FEC108" class="" data-old_color="#fec108" style="fill:#177228"/></g><g id="Layer_2" fill="#000"><path id="Shape" d="m57 31h-54c-1.5694625-.0784301-2.90861759 1.1232384-3 2.692v.847c0 7.2 4.388 13.538 11 17.186v4.275c0 2.209139 1.790861 4 4 4h30c2.209139 0 4-1.790861 4-4v-4.275c6.612-3.648 11-9.987 11-17.186v-.847c-.0913824-1.5687616-1.4305375-2.7704301-3-2.692zm-10 25c0 1.1045695-.8954305 2-2 2h-30c-1.1045695 0-2-.8954305-2-2v-3.285c3.4678499 1.5183895 7.2143225 2.296634 11 2.285h12c3.7856775.011634 7.5321501-.7666105 11-2.285zm11-21.461c0 10.179-9.869 18.461-22 18.461h-12c-12.131 0-22-8.282-22-18.461v-.847c0-.327.411-.692 1-.692h54c.589 0 1 .365 1 .692z" data-original="#000000" class="" style="fill:#000000" data-old_color="#000000"/><path id="Shape" d="m18.022 27.977c1.0041348.9943329 2.5067457 1.2892993 3.8122592.7483564 1.3055134-.540943 2.1591452-1.8122247 2.1657408-3.2253564v-11.684c1.1943509-.4222546 1.9947486-1.5492146 2-2.816h24c0 1.6568542 1.3431458 3 3 3s3-1.3431458 3-3v-6c0-1.65685425-1.3431458-3-3-3s-3 1.34314575-3 3h-24c.0027588-1.06657351-.5634003-2.05369021-1.4854118-2.58986328-.9220114-.53617306-2.0599572-.54003663-2.9855882-.01013672-.8444366-1.35892821-2.6154132-1.80167235-4-1-.5455699-.87116316-1.5011033-1.40020235-2.529-1.40020235s-1.9834301.52903919-2.529 1.40020235c-1.3845868-.80167235-3.15556337-.35892821-4 1-.92571126-.52923487-2.06330079-.52504336-2.98508698.01099871-.92178618.53604206-1.48805414 1.52268694-1.48591302 2.58900129v6c.00525139 1.2667854.80564913 2.3937454 2 2.816v8.684c0 1.5065064.96400533 2.8439924 2.39320282 3.3203915 1.42919749.4763992 3.00289328-.0151864 3.90679718-1.2203915.5415008-.7528219.7903363-1.6770681.7-2.6 0-1.1045695.8954305-2 2-2s2 .8954305 2 2v3.5c-.0036075.9289814.3643706 1.8208422 1.022 2.477zm33.978-22.977c0-.55228475.4477153-1 1-1s1 .44771525 1 1v6c0 .5522847-.4477153 1-1 1s-1-.4477153-1-1zm-2 2v2h-24v-2zm-27-3c.5522847 0 1 .44771525 1 1v6c0 .5522847-.4477153 1-1 1s-1-.4477153-1-1v-6c0-.55228475.4477153-1 1-1zm-4-1c.5522847 0 1 .44771525 1 1v8c0 .5522847-.4477153 1-1 1s-1-.4477153-1-1v-8c0-.55228475.4477153-1 1-1zm-5 0c0-.55228475.4477153-1 1-1s1 .44771525 1 1v10c0 .5522847-.4477153 1-1 1s-1-.4477153-1-1zm-4 1c0-.55228475.4477153-1 1-1s1 .44771525 1 1v8c0 .5522847-.4477153 1-1 1s-1-.4477153-1-1zm-4 1c0-.55228475.44771525-1 1-1s1 .44771525 1 1v6c0 .5522847-.44771525 1-1 1s-1-.4477153-1-1zm9 13c-2.209139 0-4 1.790861-4 4 .0834101.4878745-.0240041.989141-.3 1.4-.3927758.5051065-1.06140406.707589-1.66841711.5052513s-1.02042614-.7655006-1.03158289-1.4052513v-8.684c.16296924-.0586027.32055785-.1312072.471-.217.84476915 1.358472 2.6153345 1.8011133 4 1 .5455699.8711632 1.5011033 1.4002023 2.529 1.4002023s1.9834301-.5290391 2.529-1.4002023c1.3845868.8016724 3.1555634.3589282 4-1 .1504421.0857928.3080308.1583973.471.217v11.684c0 .8284271-.6715729 1.5-1.5 1.5s-1.5-.6715729-1.5-1.5v-3.5c0-2.209139-1.790861-4-4-4z" data-original="#000000" class="" style="fill:#000000" data-old_color="#000000"/><path id="Shape" d="m46.447 36.1-4-2c-.2814108-.1406214-.6125892-.1406214-.894 0l-3.553 1.782-3.553-1.782c-.2814108-.1406214-.6125892-.1406214-.894 0l-3.553 1.782-3.553-1.782c-.2814108-.1406214-.6125892-.1406214-.894 0l-4 2c-.3406694.1702259-.5550788.5191744-.553.9v5c0 .5522847.4477153 1 1 1s1-.4477153 1-1v-4.382l3-1.5 3 1.5v3.764l-3.447 1.723c-.2351202.1312984-.4132527.3450575-.5.6-.07.223-.049-.146-.049 5.3-.0020788.3808256.2123306.7297741.553.9l4 2c.2814108.1406214.6125892.1406214.894 0l4-2c.3407438-.1721437.5537479-.5232708.549-.905v-4.382l3-1.5c3.862 1.931 3.676 1.882 4 1.882.4684292.0057459.8780642-.3144677.985575-.7704286.1075108-.455961-.1159217-.9254452-.537575-1.1295714l-3.448-1.718v-3.764l3-1.5 3 1.5v4.382c0 .5522847.4477153 1 1 1s1-.4477153 1-1v-5c.0020788-.3808256-.2123306-.7297741-.553-.9zm-12.447.018 3 1.5v3.764l-3 1.5-3-1.5v-3.764zm-1 12.264-3 1.5-3-1.5v-3.764l3-1.5 3 1.5z" data-original="#000000" class="" style="fill:#000000" data-old_color="#000000"/><path id="Shape" d="m18.145 47.011c-.266-.04-6.551-1.059-10.25-8.458-.15969771-.3197527-.47785053-.5300187-.83461336-.5515928-.35676283-.021574-.69793491.1488214-.89500002.447-.1970651.2981787-.22008435.6788401-.06038662.9985928 4.187 8.373 11.447 9.5 11.753 9.543.5411827.0689754 1.037778-.3085417 1.1160776-.8484541.0782996-.5399125-.290596-1.0429454-.8290776-1.1305459z" data-original="#000000" class="" style="fill:#000000" data-old_color="#000000"/><circle id="Oval" cx="5" cy="36" r="1" data-original="#000000" class="" style="fill:#000000" data-old_color="#000000"/></g></g></g> </svg>
